<?xml version="1.0" standalone="no"?>
<!DOCTYPE svg PUBLIC "-//W3C//DTD SVG 20010904//EN"
 "http://www.w3.org/TR/2001/REC-SVG-20010904/DTD/svg10.dtd">
<svg version="1.0" xmlns="http://www.w3.org/2000/svg"
 width="26.000000pt" height="26.000000pt" viewBox="0 0 26.000000 26.000000"
 preserveAspectRatio="xMidYMid meet">
<metadata>
Created by potrace 1.15, written by Peter Selinger 2001-2017
</metadata>
<g transform="translate(0.000000,26.000000) scale(0.100000,-0.100000)"
fill="#000000" stroke="none">
<path d="M32 198 c-22 -22 -15 -92 12 -121 20 -22 22 -28 10 -38 -31 -26 -16
-39 47 -39 59 0 61 1 55 23 -4 16 1 26 14 35 26 16 25 41 -1 92 -21 40 -33 48
-44 30 -3 -5 -15 -10 -26 -10 -11 0 -19 -7 -19 -16 0 -11 6 -15 20 -11 16 4
20 0 20 -21 l-1 -27 -30 33 c-35 39 -33 58 4 54 29 -4 37 12 11 22 -25 10 -59
7 -72 -6z"/>
</g>
</svg>
