<?xml version="1.0" standalone="no"?>
<!DOCTYPE svg PUBLIC "-//W3C//DTD SVG 20010904//EN"
 "http://www.w3.org/TR/2001/REC-SVG-20010904/DTD/svg10.dtd">
<svg version="1.0" xmlns="http://www.w3.org/2000/svg"
 width="26.000000pt" height="26.000000pt" viewBox="0 0 26.000000 26.000000"
 preserveAspectRatio="xMidYMid meet">
<metadata>
Created by potrace 1.15, written by Peter Selinger 2001-2017
</metadata>
<g transform="translate(0.000000,26.000000) scale(0.100000,-0.100000)"
fill="#000000" stroke="none">
<path d="M70 235 l-23 -25 21 -23 c24 -25 28 -43 11 -49 -16 -5 0 -35 28 -53
21 -14 27 -15 34 -4 7 11 12 12 26 1 10 -6 24 -15 31 -18 18 -9 67 40 58 58
-30 58 -72 108 -92 108 -6 0 -17 7 -24 15 -18 22 -43 18 -70 -10z"/>
</g>
</svg>
